# xmcd
# 
# Track frame offsets:
#     150
#     27764
#     75585
#     121585
#     157040
#     192184
#     202235
# 
# Disc length: 3123
# 
# Revision: 2
# Processed by: cddbd v1.5.2PL0 Copyright (c) Steve Scherf et al.
# Submitted via: BonkEnc v1.0.8
# 
DISCID=520c3107
DTITLE=Michel Petrucciani, Niels-Henning Orsted Pedersen - Michel Petrucciani Niels-Henning Orsted Pedersen [CD2]
DYEAR=2009
DGENRE=Jazz
TTITLE0=St Thomas
TTITLE1=These Foolish Things
TTITLE2=Stella By Starlight
TTITLE3=Blues In The Closet
TTITLE4=Round Midnight
TTITLE5=Future Child
TTITLE6=My Funny Valentine
EXTD=YEAR: 2009
EXTT0=
EXTT1=
EXTT2=
EXTT3=
EXTT4=
EXTT5=
EXTT6=
PLAYORDER=
